<svg
      xmlns="http://www.w3.org/2000/svg"
      xmlns:xlink="http://www.w3.org/1999/xlink"
      width="49px"
      height="50px"
      viewBox="0 0 49 49"
    >
      <g id="surface1">
        <path
          style=" stroke:none;fill-rule:nonzero;fill:rgb(92.941177%,10.980392%,14.117648%);fill-opacity:1;"
          d="M 41.996094 24.234375 C 41.996094 33.777344 34.164062 41.511719 24.503906 41.511719 C 14.839844 41.511719 7.007812 33.777344 7.007812 24.234375 C 7.007812 14.691406 14.839844 6.957031 24.503906 6.957031 C 34.164062 6.957031 41.996094 14.691406 41.996094 24.234375 Z M 41.996094 24.234375 "
        ></path>
        <path
          style=" stroke:none;fill-rule:nonzero;fill:rgb(19.607843%,63.137257%,28.627452%);fill-opacity:1;"
          d="M 18.484375 42.128906 L 17.75 43.734375 L 17.441406 44.359375 L 17.125 44.199219 C 17.046875 44.035156 16.9375 43.890625 16.804688 43.769531 L 17.308594 42.671875 C 17.234375 42.457031 17.105469 42.261719 16.9375 42.105469 C 16.832031 42.082031 16.722656 42.09375 16.625 42.140625 L 15.765625 42.4375 C 15.445312 42.558594 15.089844 42.558594 14.769531 42.4375 C 14.453125 42.273438 14.214844 41.984375 14.121094 41.640625 L 14.460938 41.476562 C 14.550781 41.582031 14.625 41.699219 14.679688 41.828125 C 14.71875 41.902344 14.78125 41.957031 14.859375 41.988281 C 15.011719 42.019531 15.171875 42.019531 15.328125 41.988281 C 15.574219 41.988281 15.707031 41.917969 15.730469 41.878906 C 15.789062 41.742188 15.695312 41.574219 15.449219 41.359375 C 15.207031 41.15625 14.941406 40.988281 14.652344 40.859375 C 14.710938 40.734375 14.796875 40.621094 14.902344 40.523438 L 14.425781 40.292969 L 14.105469 40.152344 L 14.289062 39.753906 L 19.398438 42.023438 L 19.214844 42.417969 Z M 17.734375 41.789062 L 16.09375 41.050781 C 16.160156 41.273438 16.160156 41.511719 16.09375 41.734375 C 16.257812 41.746094 16.421875 41.746094 16.585938 41.734375 C 16.761719 41.71875 16.941406 41.71875 17.121094 41.734375 C 17.273438 41.921875 17.402344 42.132812 17.503906 42.355469 C 17.539062 42.304688 17.570312 42.25 17.597656 42.191406 C 17.597656 42.128906 17.652344 41.992188 17.734375 41.789062 Z M 17.734375 41.789062 "
        ></path>
        <path
          style=" stroke:none;fill-rule:nonzero;fill:rgb(19.607843%,63.137257%,28.627452%);fill-opacity:1;"
          d="M 22.296875 42.902344 L 21.804688 45.304688 L 21.441406 45.238281 C 20.644531 44.410156 19.589844 43.867188 18.445312 43.695312 L 18.394531 43.007812 C 18.75 42.964844 19.261719 42.933594 19.925781 42.917969 C 20.59375 42.902344 21.148438 42.878906 21.460938 42.855469 L 21.460938 42.746094 L 18.222656 42.101562 L 18.308594 41.6875 L 23.261719 42.65625 L 23.175781 43.078125 Z M 19.71875 45.101562 C 19.570312 45.074219 19.429688 45.019531 19.300781 44.941406 C 19.128906 44.839844 19.058594 44.714844 19.089844 44.578125 C 19.140625 44.324219 19.371094 44.238281 19.777344 44.316406 C 19.925781 44.34375 20.0625 44.398438 20.183594 44.484375 C 20.320312 44.542969 20.402344 44.683594 20.390625 44.828125 C 20.363281 44.953125 20.261719 45.050781 20.132812 45.078125 C 20 45.121094 19.859375 45.128906 19.71875 45.101562 Z M 21.34375 43.398438 C 20.769531 43.398438 20.230469 43.433594 19.71875 43.484375 C 20.226562 43.757812 20.699219 44.089844 21.128906 44.472656 Z M 21.34375 43.398438 "
        ></path>
        <path
          style=" stroke:none;fill-rule:nonzero;fill:rgb(19.607843%,63.137257%,28.627452%);fill-opacity:1;"
          d="M 26.28125 42.871094 L 26.28125 43.042969 C 26.671875 43.027344 27.058594 43.074219 27.429688 43.179688 C 27.914062 43.324219 28.167969 43.570312 28.1875 43.921875 C 28.1875 44.097656 28.085938 44.246094 27.855469 44.375 C 27.679688 44.472656 27.484375 44.527344 27.28125 44.539062 C 27.152344 44.550781 27.019531 44.53125 26.898438 44.484375 C 26.785156 44.445312 26.699219 44.347656 26.675781 44.230469 C 26.652344 44.113281 26.691406 43.996094 26.78125 43.914062 C 26.871094 43.84375 26.980469 43.804688 27.09375 43.800781 C 27.277344 43.804688 27.457031 43.855469 27.613281 43.957031 C 27.683594 43.921875 27.71875 43.894531 27.710938 43.851562 C 27.710938 43.582031 27.328125 43.46875 26.605469 43.507812 L 26.304688 43.507812 L 26.402344 45.265625 L 26.035156 45.265625 C 25.640625 44.988281 25.199219 44.78125 24.734375 44.652344 C 24.1875 44.542969 23.628906 44.488281 23.074219 44.488281 L 22.65625 43.921875 C 23.605469 43.703125 24.546875 43.4375 25.472656 43.128906 C 25.46875 43.0625 25.46875 43 25.472656 42.933594 L 22.28125 43.109375 L 22.242188 42.695312 L 28.804688 42.332031 L 28.804688 42.746094 Z M 25.558594 44.035156 C 25.558594 44.070312 25.558594 43.949219 25.523438 43.683594 C 25.035156 43.792969 24.546875 43.929688 24.074219 44.089844 C 24.457031 44.203125 24.96875 44.375 25.589844 44.613281 Z M 25.558594 44.035156 "
        ></path>
        <path
          style=" stroke:none;fill-rule:nonzero;fill:rgb(19.607843%,63.137257%,28.627452%);fill-opacity:1;"
          d="M 29.46875 42.300781 L 30.042969 44.652344 L 29.738281 44.726562 C 29.566406 44.621094 29.367188 44.554688 29.164062 44.535156 L 28.644531 42.492188 L 27.855469 42.695312 L 27.746094 42.28125 L 28.578125 42.074219 L 28.453125 41.597656 L 28.757812 41.503906 L 29.199219 41.917969 L 30.171875 41.675781 L 30.273438 42.09375 Z M 29.46875 42.300781 "
        ></path>
        <path
          style=" stroke:none;fill-rule:nonzero;fill:rgb(19.607843%,63.137257%,28.627452%);fill-opacity:1;"
          d="M 33.40625 40.859375 L 34.378906 43.128906 L 34.035156 43.269531 C 32.902344 43.03125 31.71875 43.171875 30.675781 43.667969 L 30.246094 43.097656 C 30.507812 42.867188 30.917969 42.53125 31.457031 42.167969 C 31.996094 41.804688 32.445312 41.453125 32.683594 41.261719 L 32.640625 41.164062 L 29.578125 42.441406 L 29.40625 42.042969 L 34.046875 40.097656 L 34.21875 40.492188 Z M 32.898438 41.785156 C 32.453125 42.089844 32.019531 42.417969 31.605469 42.765625 C 32.175781 42.699219 32.753906 42.699219 33.328125 42.765625 Z M 32.546875 44.109375 C 32.40625 44.171875 32.257812 44.207031 32.105469 44.214844 C 31.949219 44.246094 31.792969 44.171875 31.71875 44.035156 C 31.617188 43.796875 31.761719 43.59375 32.140625 43.433594 C 32.277344 43.375 32.421875 43.34375 32.570312 43.34375 C 32.714844 43.328125 32.855469 43.40625 32.921875 43.535156 C 32.972656 43.652344 32.945312 43.792969 32.851562 43.882812 C 32.769531 43.976562 32.664062 44.046875 32.546875 44.089844 Z M 32.546875 44.109375 "
        ></path>
        <path
          style=" stroke:none;fill-rule:nonzero;fill:rgb(16.078432%,65.490198%,29.019609%);fill-opacity:1;"
          d="M 3.855469 20.304688 L 6.003906 20.566406 L 5.917969 21.273438 L 5.34375 21.199219 L 4.804688 21.136719 C 4.507812 21.066406 4.195312 21.152344 3.976562 21.359375 C 3.800781 21.605469 3.699219 21.898438 3.683594 22.199219 C 3.636719 22.5625 3.683594 22.765625 3.746094 22.765625 L 3.777344 22.765625 L 3.777344 22.488281 C 3.773438 22.433594 3.773438 22.382812 3.777344 22.328125 C 3.800781 22.164062 3.867188 22.007812 3.964844 21.875 C 4.09375 21.695312 4.222656 21.609375 4.363281 21.625 C 4.5 21.644531 4.683594 21.839844 4.734375 22.191406 C 4.777344 22.519531 4.777344 22.847656 4.734375 23.171875 L 4.300781 23.429688 C 4.300781 23.339844 4.300781 23.253906 4.339844 23.167969 L 4.339844 23.027344 C 4.417969 22.398438 4.367188 22.066406 4.191406 22.046875 C 4.011719 22.023438 4.011719 22.128906 3.984375 22.347656 C 3.964844 22.582031 4.011719 22.816406 4.121094 23.027344 C 3.953125 23.269531 3.777344 23.382812 3.597656 23.359375 C 3.414062 23.335938 3.257812 23.207031 3.195312 23.03125 C 3.117188 22.867188 3.089844 22.679688 3.117188 22.5 C 3.230469 21.941406 3.5 21.425781 3.898438 21.011719 L 3.378906 20.949219 L 3.5625 19.480469 L 3.949219 19.527344 Z M 3.855469 20.304688 "
        ></path>
        <path
          style=" stroke:none;fill-rule:nonzero;fill:rgb(16.078432%,65.490198%,29.019609%);fill-opacity:1;"
          d="M 5.207031 15.957031 L 7.25 16.652344 L 7.117188 17 C 6.835938 17.078125 6.5625 17.183594 6.296875 17.308594 C 5.980469 17.480469 5.730469 17.757812 5.597656 18.085938 L 5.640625 18.085938 C 5.785156 18.132812 5.890625 18.261719 5.902344 18.410156 C 5.917969 18.558594 5.898438 18.703125 5.84375 18.839844 C 5.785156 19.011719 5.695312 19.167969 5.574219 19.300781 C 5.414062 19.476562 5.261719 19.539062 5.113281 19.488281 C 4.929688 19.414062 4.8125 19.234375 4.816406 19.039062 C 4.789062 18.847656 4.808594 18.65625 4.871094 18.472656 C 5.011719 18.167969 5.210938 17.894531 5.464844 17.667969 C 5.632812 17.515625 5.882812 17.304688 6.214844 17.039062 L 4.960938 16.609375 L 3.914062 19.589844 L 3.546875 19.464844 L 5.132812 14.929688 L 5.5 15.054688 Z M 7.492188 12.03125 L 9.324219 13.164062 L 9.140625 13.449219 L 8.738281 13.660156 L 8.046875 13.210938 L 7.761719 13.03125 C 7.667969 12.972656 7.558594 12.949219 7.449219 12.96875 L 7.34375 14.53125 L 6.847656 14.929688 C 6.898438 14.539062 6.898438 14.332031 6.847656 14.300781 C 6.796875 14.265625 6.679688 14.300781 6.601562 14.417969 C 6.519531 14.539062 6.507812 14.578125 6.441406 14.707031 C 6.371094 14.839844 6.320312 14.933594 6.28125 14.996094 C 6.128906 15.234375 5.96875 15.296875 5.792969 15.191406 C 5.613281 15.082031 5.621094 14.894531 5.683594 14.554688 C 5.714844 14.316406 5.792969 14.089844 5.914062 13.878906 C 6.230469 13.390625 6.683594 12.996094 7.214844 12.746094 C 7.078125 12.660156 6.929688 12.566406 6.777344 12.457031 L 7.578125 11.179688 L 7.898438 11.378906 Z M 6.917969 13.761719 L 6.917969 13.195312 C 6.683594 13.3125 6.496094 13.496094 6.371094 13.722656 C 6.300781 13.839844 6.242188 13.964844 6.203125 14.09375 C 6.148438 14.28125 6.160156 14.40625 6.246094 14.476562 L 6.296875 14.445312 C 6.332031 14.414062 6.441406 14.242188 6.625 13.953125 C 6.6875 13.835938 6.8125 13.761719 6.945312 13.761719 Z M 6.917969 13.761719 "
        ></path>
        <path
          style=" stroke:none;fill-rule:nonzero;fill:rgb(16.078432%,65.490198%,29.019609%);fill-opacity:1;"
          d="M 9.328125 13.640625 C 9.0625 13.675781 8.824219 13.816406 8.675781 14.03125 C 8.503906 14.269531 8.359375 14.523438 8.242188 14.789062 C 8.125 15.054688 7.980469 15.308594 7.8125 15.546875 C 7.660156 15.738281 7.460938 15.890625 7.238281 15.996094 C 7.03125 16.132812 6.757812 16.132812 6.550781 15.996094 L 6.433594 15.910156 L 6.660156 15.625 C 6.929688 15.742188 7.246094 15.667969 7.429688 15.4375 C 7.574219 15.242188 7.699219 15.03125 7.808594 14.808594 C 7.914062 14.597656 8.042969 14.398438 8.1875 14.207031 C 8.355469 13.988281 8.566406 13.796875 8.800781 13.640625 L 8.667969 13.535156 L 9.054688 13.046875 L 9.53125 13.414062 Z M 10.222656 9.105469 C 10.519531 9.074219 10.792969 8.949219 11.011719 8.75 C 11.113281 8.644531 11.203125 8.53125 11.28125 8.40625 L 11.957031 8.40625 C 11.835938 8.660156 11.808594 8.945312 11.878906 9.214844 C 11.953125 9.429688 12.078125 9.621094 12.246094 9.78125 C 12.390625 9.886719 12.550781 9.972656 12.722656 10.035156 L 12.589844 10.308594 C 12.195312 10.242188 11.828125 10.082031 11.515625 9.835938 C 11.382812 9.636719 11.277344 9.421875 11.207031 9.191406 C 11.007812 9.300781 10.796875 9.382812 10.578125 9.441406 C 10.398438 9.476562 10.207031 9.460938 10.035156 9.394531 C 9.910156 9.585938 9.8125 9.792969 9.746094 10.011719 C 9.679688 10.246094 9.691406 10.402344 9.777344 10.496094 C 10.117188 10.285156 10.195312 10.039062 10.199219 9.785156 C 10.527344 9.667969 10.890625 9.742188 11.144531 9.972656 C 11.289062 10.121094 11.351562 10.335938 11.308594 10.539062 C 11.25 10.820312 11.101562 11.070312 10.882812 11.261719 C 10.519531 11.660156 9.972656 11.847656 9.4375 11.757812 C 9.054688 11.636719 8.691406 11.46875 8.347656 11.265625 L 8.628906 10.929688 C 8.914062 11.144531 9.257812 11.265625 9.617188 11.289062 C 9.980469 11.253906 10.3125 11.082031 10.550781 10.808594 C 10.644531 10.722656 10.714844 10.617188 10.765625 10.5 C 10.828125 10.390625 10.816406 10.253906 10.734375 10.15625 C 10.582031 10.246094 10.492188 10.394531 10.367188 10.515625 C 10.179688 10.71875 9.917969 10.839844 9.636719 10.847656 C 9.449219 10.835938 9.269531 10.753906 9.144531 10.613281 C 9.074219 10.484375 9.042969 10.339844 9.054688 10.195312 L 7.789062 11.394531 L 7.527344 11.125 L 11.699219 7.15625 L 11.96875 7.425781 Z M 10.222656 9.105469 "
        ></path>
        <path
          style=" stroke:none;fill-rule:nonzero;fill:rgb(16.078432%,65.490198%,29.019609%);fill-opacity:1;"
          d="M 13.128906 6.886719 L 14.328125 8.679688 L 14.097656 8.828125 C 13.925781 8.796875 13.746094 8.796875 13.570312 8.828125 L 12.53125 7.273438 L 11.910156 7.683594 L 11.699219 7.359375 L 12.355469 6.949219 L 12.113281 6.582031 L 12.335938 6.421875 L 12.832031 6.640625 L 13.570312 6.15625 L 13.785156 6.476562 Z M 13.128906 6.886719 "
        ></path>
        <path
          style=" stroke:none;fill-rule:nonzero;fill:rgb(16.078432%,65.490198%,29.019609%);fill-opacity:1;"
          d="M 13.46875 6.46875 L 13.320312 6.125 L 18.375 3.933594 L 18.53125 4.28125 Z M 17.132812 7.269531 C 16.628906 7.515625 16.050781 7.578125 15.507812 7.4375 C 14.96875 7.269531 14.507812 6.925781 14.195312 6.464844 L 14.457031 6.269531 C 14.71875 6.578125 15.042969 6.828125 15.414062 6.996094 C 15.890625 7.15625 16.410156 7.117188 16.855469 6.894531 C 17.101562 6.789062 17.324219 6.640625 17.519531 6.464844 C 17.78125 6.226562 17.867188 6.003906 17.773438 5.804688 C 17.695312 5.632812 17.523438 5.519531 17.332031 5.515625 C 17.136719 5.496094 16.9375 5.527344 16.757812 5.605469 C 16.5625 5.691406 16.472656 5.761719 16.492188 5.8125 C 16.515625 5.863281 16.5625 5.84375 16.675781 5.863281 C 16.792969 5.878906 16.855469 5.914062 16.878906 5.964844 C 16.925781 6.097656 16.882812 6.25 16.769531 6.339844 C 16.667969 6.441406 16.546875 6.523438 16.414062 6.578125 C 16.261719 6.652344 16.089844 6.6875 15.917969 6.679688 C 15.746094 6.675781 15.59375 6.570312 15.527344 6.414062 C 15.449219 6.230469 15.527344 6.019531 15.78125 5.792969 C 15.964844 5.621094 16.179688 5.484375 16.414062 5.386719 C 16.730469 5.246094 17.082031 5.183594 17.429688 5.210938 C 17.78125 5.1875 18.113281 5.371094 18.273438 5.679688 C 18.398438 6.023438 18.292969 6.40625 18.007812 6.640625 C 17.773438 6.914062 17.46875 7.132812 17.132812 7.269531 Z M 17.132812 7.269531 "
        ></path>
        <path
          style=" stroke:none;fill-rule:nonzero;fill:rgb(16.078432%,65.490198%,29.019609%);fill-opacity:1;"
          d="M 22.476562 3.683594 L 22.671875 4.820312 L 22.097656 4.914062 L 21.941406 4.570312 C 21.59375 4.429688 21.222656 4.367188 20.847656 4.375 C 20.863281 4.414062 20.878906 4.453125 20.886719 4.496094 C 20.929688 4.707031 20.796875 4.835938 20.488281 4.886719 C 20.351562 4.914062 20.214844 4.914062 20.078125 4.886719 C 19.9375 4.867188 19.828125 4.765625 19.796875 4.632812 C 19.753906 4.371094 19.925781 4.207031 20.316406 4.144531 C 20.824219 4.085938 21.335938 4.109375 21.832031 4.21875 L 21.765625 3.828125 L 18.496094 4.367188 L 18.433594 3.984375 L 23.78125 3.082031 L 23.835938 3.433594 Z M 22.476562 3.683594 "
        ></path>
        <path
          style=" stroke:none;fill-rule:nonzero;fill:rgb(16.078432%,65.490198%,29.019609%);fill-opacity:1;"
          d="M 22.792969 5.949219 L 22.453125 5.949219 L 22.328125 5.894531 L 22.046875 5.894531 C 21.816406 5.910156 21.585938 5.9375 21.355469 5.980469 C 21.128906 6.019531 20.898438 6.046875 20.667969 6.0625 C 20.414062 6.082031 20.160156 6.054688 19.914062 5.980469 C 19.667969 5.925781 19.484375 5.714844 19.46875 5.464844 C 19.464844 5.398438 19.464844 5.332031 19.46875 5.265625 L 19.898438 5.265625 C 19.898438 5.605469 20.070312 5.773438 20.363281 5.761719 C 20.507812 5.761719 20.714844 5.726562 20.988281 5.6875 C 21.195312 5.648438 21.40625 5.621094 21.613281 5.605469 C 21.761719 5.601562 21.910156 5.621094 22.050781 5.664062 C 22.042969 5.5625 22.042969 5.464844 22.050781 5.363281 L 22.050781 5.0625 C 22.058594 4.957031 22.015625 4.855469 21.9375 4.785156 C 21.855469 4.714844 21.75 4.6875 21.644531 4.707031 L 21.539062 4.707031 L 21.34375 4.859375 C 21.660156 4.859375 21.820312 4.914062 21.828125 5.027344 C 21.828125 5.113281 21.78125 5.191406 21.707031 5.234375 C 21.636719 5.285156 21.554688 5.316406 21.464844 5.324219 C 21.035156 5.324219 20.816406 5.226562 20.804688 4.984375 C 20.792969 4.855469 20.84375 4.730469 20.9375 4.644531 C 21.074219 4.535156 21.230469 4.460938 21.398438 4.417969 C 21.707031 4.398438 22.019531 4.414062 22.328125 4.46875 C 22.566406 4.507812 22.746094 4.710938 22.753906 4.949219 L 22.753906 5.675781 C 22.777344 5.765625 22.789062 5.855469 22.792969 5.949219 Z M 24.785156 3.65625 L 24.75 5.78125 L 24.464844 5.78125 C 24.34375 5.636719 24.191406 5.519531 24.019531 5.4375 L 24.019531 3.644531 L 23.261719 3.632812 L 23.261719 3.257812 L 24.1875 3.257812 L 24.507812 3.0625 C 24.105469 2.722656 23.589844 2.539062 23.0625 2.539062 C 22.59375 2.527344 22.132812 2.652344 21.734375 2.902344 L 21.476562 2.742188 C 22.089844 2.414062 22.769531 2.222656 23.464844 2.175781 C 23.808594 2.183594 24.148438 2.265625 24.464844 2.410156 C 24.746094 2.542969 25.011719 2.699219 25.265625 2.878906 L 24.625 3.277344 L 25.535156 3.277344 L 25.535156 3.652344 Z M 30.863281 4.621094 L 30.355469 6.71875 L 29.964844 6.621094 C 29.285156 5.855469 28.367188 5.335938 27.355469 5.136719 L 27.355469 4.535156 C 27.820312 4.507812 28.285156 4.507812 28.746094 4.535156 L 30.148438 4.535156 L 30.148438 4.457031 L 26.914062 3.671875 L 27 3.304688 L 31.707031 4.4375 L 31.617188 4.808594 Z M 30.019531 4.996094 C 29.402344 4.972656 28.890625 4.972656 28.488281 4.996094 C 28.960938 5.25 29.398438 5.566406 29.785156 5.9375 Z M 30.019531 4.996094 "
        ></path>
        <path
          style=" stroke:none;fill-rule:nonzero;fill:rgb(16.078432%,65.490198%,29.019609%);fill-opacity:1;"
          d="M 32.542969 5.316406 L 31.71875 7.292969 L 31.460938 7.1875 C 31.394531 7.027344 31.296875 6.878906 31.167969 6.757812 L 31.882812 5.058594 L 31.191406 4.777344 L 31.339844 4.421875 L 32.042969 4.707031 L 32.214844 4.296875 L 32.476562 4.394531 L 32.570312 4.921875 L 33.386719 5.253906 L 33.242188 5.605469 Z M 34.589844 9.105469 C 34.46875 8.925781 34.296875 8.699219 34.074219 8.414062 C 33.898438 8.183594 33.707031 7.964844 33.5 7.761719 C 33.257812 7.539062 32.996094 7.335938 32.726562 7.148438 L 33.21875 6.660156 L 33.722656 7.15625 C 33.988281 7.460938 34.21875 7.789062 34.414062 8.140625 C 34.625 8.496094 34.816406 8.859375 34.988281 9.234375 Z M 33.796875 6.835938 C 33.621094 6.742188 33.46875 6.617188 33.339844 6.464844 C 33.1875 6.328125 33.144531 6.113281 33.230469 5.929688 C 33.367188 5.726562 33.613281 5.621094 33.855469 5.664062 C 34.101562 5.671875 34.339844 5.738281 34.554688 5.851562 C 34.730469 5.941406 34.882812 6.0625 35.003906 6.214844 C 35.136719 6.355469 35.164062 6.566406 35.074219 6.734375 C 34.949219 6.929688 34.730469 7.039062 34.5 7.019531 C 34.253906 7.019531 34.011719 6.957031 33.796875 6.835938 Z M 34.171875 5.988281 C 33.886719 6.144531 33.886719 6.273438 33.9375 6.382812 C 33.964844 6.503906 34.035156 6.609375 34.136719 6.683594 L 34.292969 6.722656 L 34.417969 6.722656 C 34.417969 6.722656 34.417969 6.554688 34.351562 6.355469 C 34.28125 6.15625 34.210938 6.015625 34.171875 5.988281 Z M 35.800781 8.742188 C 35.902344 8.652344 36.042969 8.617188 36.175781 8.644531 C 36.308594 8.675781 36.433594 8.734375 36.542969 8.816406 C 36.644531 8.898438 36.722656 9.007812 36.773438 9.128906 C 36.835938 9.25 36.820312 9.394531 36.734375 9.496094 C 36.542969 9.722656 36.277344 9.699219 35.945312 9.421875 C 35.707031 9.230469 35.53125 8.976562 35.433594 8.6875 C 35.316406 8.40625 35.359375 8.085938 35.542969 7.847656 C 35.667969 7.691406 35.855469 7.601562 36.054688 7.601562 C 36.253906 7.613281 36.445312 7.691406 36.59375 7.820312 C 36.722656 7.9375 36.828125 8.074219 36.917969 8.222656 C 37.027344 8.363281 37.101562 8.527344 37.128906 8.703125 C 37.394531 8.804688 37.675781 8.851562 37.960938 8.839844 C 37.921875 9.046875 37.964844 9.261719 38.074219 9.441406 L 38.425781 9.03125 C 38.226562 8.894531 38.035156 8.746094 37.851562 8.589844 L 35.808594 6.886719 L 36.070312 6.578125 L 39.742188 9.617188 L 39.492188 9.910156 L 38.996094 9.503906 L 37.617188 11.152344 L 37.351562 10.902344 L 37.273438 10.414062 L 37.597656 10.035156 C 37.683594 9.945312 37.753906 9.847656 37.8125 9.742188 C 37.878906 9.597656 37.855469 9.433594 37.75 9.316406 L 37.042969 9.105469 C 36.988281 9.003906 36.941406 8.902344 36.90625 8.792969 C 36.882812 8.710938 36.847656 8.628906 36.800781 8.554688 C 36.730469 8.449219 36.644531 8.355469 36.542969 8.277344 C 36.429688 8.179688 36.296875 8.109375 36.152344 8.074219 C 36.007812 8.03125 35.851562 8.082031 35.757812 8.199219 C 35.6875 8.273438 35.648438 8.371094 35.648438 8.46875 C 35.648438 8.570312 35.695312 8.664062 35.773438 8.726562 Z M 35.800781 8.742188 "
        ></path>
        <path
          style=" stroke:none;fill-rule:nonzero;fill:rgb(16.078432%,65.490198%,29.019609%);fill-opacity:1;"
          d="M 40.230469 10.914062 L 38.59375 12.328125 L 38.410156 12.121094 C 38.421875 11.945312 38.398438 11.765625 38.335938 11.601562 L 39.753906 10.375 L 39.265625 9.808594 L 39.550781 9.558594 L 40.050781 10.125 L 40.394531 9.832031 L 40.585938 10.035156 L 40.429688 10.550781 L 41.003906 11.210938 L 40.710938 11.457031 Z M 40.230469 10.914062 "
        ></path>
        <path
          style=" stroke:none;fill-rule:nonzero;fill:rgb(16.078432%,65.490198%,29.019609%);fill-opacity:1;"
          d="M 41.636719 12.746094 C 41.402344 12.519531 41.085938 12.402344 40.761719 12.421875 C 40.472656 12.375 40.175781 12.421875 39.914062 12.554688 C 39.757812 12.660156 39.71875 12.769531 39.785156 12.882812 C 39.875 12.914062 39.964844 12.929688 40.058594 12.925781 C 40.203125 12.953125 40.332031 13.042969 40.40625 13.171875 C 40.476562 13.269531 40.515625 13.386719 40.515625 13.503906 C 40.523438 13.621094 40.472656 13.734375 40.378906 13.804688 C 40.269531 13.878906 40.132812 13.898438 40.011719 13.855469 C 39.835938 13.800781 39.683594 13.6875 39.585938 13.535156 C 39.429688 13.339844 39.351562 13.09375 39.367188 12.847656 C 39.40625 12.613281 39.546875 12.40625 39.753906 12.28125 C 40.125 11.996094 40.597656 11.871094 41.0625 11.941406 L 40.488281 11.140625 L 40.804688 10.921875 L 42.3125 12.988281 L 41.996094 13.214844 Z M 41.636719 12.746094 "
        ></path>
        <path
          style=" stroke:none;fill-rule:nonzero;fill:rgb(16.078432%,65.490198%,29.019609%);fill-opacity:1;"
          d="M 42.640625 14.375 L 41.808594 14.777344 L 41.808594 14.890625 C 42.34375 15.25 42.84375 15.660156 43.296875 16.121094 L 43.296875 16.875 C 42.976562 16.601562 42.527344 16.535156 42.148438 16.710938 C 41.933594 16.828125 41.761719 17 41.640625 17.207031 L 41.433594 16.773438 C 41.621094 16.507812 41.867188 16.285156 42.152344 16.125 C 42.273438 16.070312 42.402344 16.035156 42.53125 16.011719 C 42.144531 15.601562 41.675781 15.28125 41.152344 15.066406 L 41.0625 14.328125 L 42.320312 13.703125 L 41.921875 12.921875 L 42.265625 12.75 L 44.421875 17 L 44.070312 17.167969 Z M 44.964844 20.859375 L 42.910156 21.351562 L 42.8125 21.011719 L 42.996094 20.554688 L 43.804688 20.390625 C 44.003906 20.355469 44.1875 20.265625 44.339844 20.132812 C 44.511719 19.933594 44.605469 19.683594 44.609375 19.417969 C 44.582031 19.371094 44.554688 19.320312 44.523438 19.273438 C 44.476562 19.210938 44.441406 19.175781 44.414062 19.171875 C 44.386719 19.164062 44.324219 19.25 44.300781 19.347656 C 44.277344 19.441406 44.21875 19.640625 44.195312 19.703125 C 44.164062 19.804688 44.089844 19.882812 43.988281 19.917969 C 43.773438 19.972656 43.628906 19.863281 43.558594 19.59375 C 43.542969 19.488281 43.542969 19.378906 43.558594 19.273438 C 43.621094 19.164062 43.695312 19.027344 43.777344 18.859375 C 43.703125 18.777344 43.613281 18.703125 43.519531 18.644531 C 43.382812 18.554688 43.28125 18.417969 43.238281 18.261719 C 43.214844 18.15625 43.214844 18.046875 43.238281 17.941406 C 43.238281 17.796875 43.324219 17.71875 43.414062 17.695312 C 43.507812 17.671875 43.726562 17.742188 43.914062 17.933594 C 44.03125 18.070312 44.171875 18.191406 44.324219 18.292969 L 44.183594 17.722656 C 44.292969 17.570312 44.386719 17.40625 44.460938 17.238281 C 44.550781 17.542969 44.578125 17.863281 44.546875 18.179688 C 44.546875 18.304688 44.507812 18.417969 44.496094 18.511719 C 44.71875 18.757812 44.914062 19.027344 45.082031 19.3125 C 44.90625 19.582031 44.761719 19.867188 44.644531 20.164062 L 45.160156 20.042969 L 45.515625 21.472656 L 45.136719 21.5625 Z M 44.964844 20.859375 "
        ></path>
        <path
          style=" stroke:none;fill-rule:nonzero;fill:rgb(22.352941%,60.392159%,28.235295%);fill-opacity:1;"
          d="M 48.238281 24.234375 C 48.238281 37.179688 37.613281 47.675781 24.503906 47.675781 C 11.394531 47.675781 0.769531 37.179688 0.769531 24.234375 C 0.769531 11.289062 11.394531 0.792969 24.503906 0.792969 C 37.605469 0.808594 48.222656 11.292969 48.238281 24.234375 Z M 24.503906 0.03125 C 10.976562 0.03125 0.0078125 10.855469 0.00390625 24.214844 C 0 37.574219 10.960938 48.40625 24.488281 48.410156 C 38.015625 48.417969 48.984375 37.59375 48.992188 24.234375 C 48.980469 10.878906 38.027344 0.0507812 24.503906 0.03125 Z M 24.503906 0.03125 "
        ></path>
        <path
          style=" stroke:none;fill-rule:nonzero;fill:rgb(100%,79.607844%,1.960784%);fill-opacity:1;"
          d="M 17.734375 12.109375 C 17.5625 12.015625 16.894531 11.890625 16.699219 12.109375 C 16.503906 12.332031 16.808594 12.886719 16.757812 13.164062 C 16.382812 13.285156 16.046875 13.8125 15.867188 14.140625 C 15.574219 14.679688 15.644531 14.980469 16.207031 15.273438 C 16.589844 15.441406 16.964844 15.628906 17.328125 15.84375 C 17.703125 16.128906 18.128906 16.34375 18.582031 16.476562 C 18.78125 16.863281 18.800781 17.3125 18.636719 17.714844 C 18.246094 17.691406 17.855469 17.742188 17.488281 17.859375 C 17.097656 18.023438 17.074219 18.382812 16.804688 18.675781 C 16.535156 18.972656 16.230469 19.015625 15.988281 19.4375 C 15.789062 19.734375 15.699219 20.089844 15.742188 20.445312 C 15.988281 21.1875 17.335938 21.167969 17.933594 21.523438 C 18.820312 22.054688 18.25 22.84375 17.871094 23.484375 C 17.492188 24.125 17.589844 24.722656 17.988281 25.492188 C 18.390625 26.109375 18.703125 26.777344 18.910156 27.484375 C 19.210938 28.957031 18.539062 31.257812 19.921875 32.25 C 20.261719 32.496094 20.730469 32.683594 20.976562 32.25 C 21.171875 31.929688 21.226562 32.363281 21.484375 32.09375 C 21.851562 31.703125 21.625 31.734375 21.734375 31.992188 C 21.949219 32.480469 22.035156 32.195312 22.597656 32.054688 C 23.160156 31.910156 23.324219 31.835938 23.746094 32.199219 C 24.164062 32.5625 24.398438 32.824219 24.746094 32.304688 C 25.007812 31.90625 24.917969 31.300781 25.175781 30.914062 C 25.433594 30.527344 25.75 30.78125 26.179688 30.914062 C 26.277344 30.914062 26.261719 30.949219 26.339844 31.003906 C 26.988281 31.003906 26.738281 30.4375 27.148438 30.214844 C 27.671875 29.945312 27.976562 30.726562 28.253906 30.074219 C 28.589844 29.292969 27.976562 27.839844 29.476562 28.207031 C 30.394531 28.429688 30.8125 29.421875 30.996094 30.253906 C 31.117188 30.824219 31.121094 31.363281 31.261719 31.898438 C 31.429688 32.414062 31.546875 32.941406 31.605469 33.476562 C 31.648438 34.117188 31.773438 34.746094 31.96875 35.359375 C 32.683594 35.324219 32.253906 34.417969 32.667969 34.128906 C 33.082031 33.839844 33.90625 34.292969 34.4375 34.207031 C 34.480469 33.742188 34.480469 33.277344 34.4375 32.8125 C 34.355469 32.332031 34.121094 31.953125 34.078125 31.457031 C 33.992188 30.546875 34.21875 29.570312 34.078125 28.65625 C 33.941406 27.742188 33.449219 26.972656 33.234375 26.117188 C 33.105469 25.257812 32.898438 24.414062 32.628906 23.585938 C 32.425781 23.121094 32.214844 23.019531 31.6875 23.09375 C 31.375 23.90625 31.46875 24.660156 31.007812 25.429688 C 30.550781 26.203125 30.003906 26.945312 29.140625 25.929688 C 28.859375 25.5 28.609375 25.050781 28.394531 24.585938 C 28.144531 24.214844 27.984375 23.792969 27.925781 23.347656 C 27.867188 22.390625 28.609375 21.796875 29.445312 21.546875 C 30.179688 21.324219 30.222656 21.105469 30.777344 20.644531 C 31.144531 20.332031 31.679688 20.242188 32.09375 19.941406 C 32.789062 19.449219 32.238281 18.988281 32.53125 18.363281 C 32.730469 17.933594 33.679688 17.929688 33.644531 17.433594 C 33.300781 17.242188 33.117188 16.914062 32.742188 16.726562 C 32.421875 16.527344 32.0625 16.390625 31.691406 16.316406 C 31.332031 16.242188 30.960938 16.261719 30.613281 16.375 C 30.304688 16.527344 29.984375 16.644531 29.652344 16.726562 C 28.84375 16.726562 28.503906 15.511719 27.707031 16.363281 C 27.472656 16.613281 27.429688 16.886719 27.132812 17.089844 C 26.785156 17.285156 26.386719 17.386719 25.984375 17.378906 C 25.597656 17.425781 25.214844 17.492188 24.835938 17.578125 C 24.414062 17.605469 23.992188 17.519531 23.617188 17.328125 C 22.585938 16.941406 22.6875 16.515625 22.6875 15.457031 C 22.6875 14.832031 22.6875 13.359375 21.878906 13.3125 C 21.304688 13.285156 21.511719 13.703125 21.183594 13.929688 C 20.855469 14.15625 20.390625 13.839844 20.226562 13.640625 C 19.863281 13.164062 20.046875 12.296875 19.203125 12.242188 C 18.359375 12.183594 18.222656 13.074219 17.683594 12.109375 "
        ></path>
        <path
          style=" stroke:none;fill-rule:nonzero;fill:rgb(92.941177%,10.980392%,14.117648%);fill-opacity:1;"
          d="M 4.871094 27.101562 L 5.382812 28.652344 L 7.039062 28.652344 L 5.699219 29.609375 L 6.210938 31.15625 L 4.871094 30.199219 L 3.539062 31.15625 L 4.050781 29.609375 L 2.714844 28.652344 L 4.367188 28.652344 Z M 8.300781 34.390625 L 8.804688 35.9375 L 10.460938 35.9375 L 9.128906 36.894531 L 9.632812 38.445312 L 8.300781 37.484375 L 6.964844 38.445312 L 7.472656 36.894531 L 6.140625 35.9375 L 7.789062 35.9375 Z M 40.707031 34.308594 L 41.214844 35.863281 L 42.863281 35.863281 L 41.527344 36.820312 L 42.039062 38.371094 L 40.707031 37.410156 L 39.367188 38.371094 L 39.878906 36.820312 L 38.546875 35.863281 L 40.195312 35.863281 Z M 44.433594 26.875 L 44.941406 28.425781 L 46.589844 28.425781 L 45.257812 29.382812 L 45.765625 30.929688 L 44.433594 29.972656 L 43.101562 30.929688 L 43.605469 29.382812 L 42.273438 28.425781 L 43.921875 28.425781 Z M 44.433594 26.875 "
        ></path>
      </g>
    </svg>
